<svg width="75" height="93" viewBox="0 0 75 93" fill="none" xmlns="http://www.w3.org/2000/svg">
<path d="M22.875 12.375H13.125C10.5391 12.375 8.05919 13.4022 6.23071 15.2307C4.40223 17.0592 3.375 19.5391 3.375 22.125V80.625C3.375 83.2109 4.40223 85.6908 6.23071 87.5193C8.05919 89.3478 10.5391 90.375 13.125 90.375H61.875C64.4609 90.375 66.9408 89.3478 68.7693 87.5193C70.5978 85.6908 71.625 83.2109 71.625 80.625V22.125C71.625 19.5391 70.5978 17.0592 68.7693 15.2307C66.9408 13.4022 64.4609 12.375 61.875 12.375H52.125M22.875 12.375C22.875 9.78914 23.9022 7.30919 25.7307 5.48071C27.5592 3.65223 30.0391 2.625 32.625 2.625H42.375C44.9609 2.625 47.4408 3.65223 49.2693 5.48071C51.0978 7.30919 52.125 9.78914 52.125 12.375M22.875 12.375C22.875 14.9609 23.9022 17.4408 25.7307 19.2693C27.5592 21.0978 30.0391 22.125 32.625 22.125H42.375C44.9609 22.125 47.4408 21.0978 49.2693 19.2693C51.0978 17.4408 52.125 14.9609 52.125 12.375M22.875 46.5H52.125M22.875 66H52.125" stroke="url(#paint0_linear_1822_10879)" stroke-width="4.875" stroke-linecap="round" stroke-linejoin="round"/>
<defs>
<linearGradient id="paint0_linear_1822_10879" x1="37.5" y1="2.625" x2="37.5" y2="90.375" gradientUnits="userSpaceOnUse">
<stop offset="0.2" stop-color="#D4D4D8"/>
<stop offset="1" stop-color="#D4D4D8" stop-opacity="0"/>
</linearGradient>
</defs>
</svg>
