<svg width="122" height="108" viewBox="0 0 122 108" fill="none" xmlns="http://www.w3.org/2000/svg">
<path d="M67.3333 9.66683H118M67.3333 35.0002H99M67.3333 73.0002H118M67.3333 98.3335H99M4 9.66683C4 7.98712 4.66726 6.37622 5.85499 5.18849C7.04272 4.00076 8.65363 3.3335 10.3333 3.3335H35.6667C37.3464 3.3335 38.9573 4.00076 40.145 5.18849C41.3327 6.37622 42 7.98712 42 9.66683V35.0002C42 36.6799 41.3327 38.2908 40.145 39.4785C38.9573 40.6662 37.3464 41.3335 35.6667 41.3335H10.3333C8.65363 41.3335 7.04272 40.6662 5.85499 39.4785C4.66726 38.2908 4 36.6799 4 35.0002V9.66683ZM4 73.0002C4 71.3205 4.66726 69.7095 5.85499 68.5218C7.04272 67.3341 8.65363 66.6668 10.3333 66.6668H35.6667C37.3464 66.6668 38.9573 67.3341 40.145 68.5218C41.3327 69.7095 42 71.3205 42 73.0002V98.3335C42 100.013 41.3327 101.624 40.145 102.812C38.9573 104 37.3464 104.667 35.6667 104.667H10.3333C8.65363 104.667 7.04272 104 5.85499 102.812C4.66726 101.624 4 100.013 4 98.3335V73.0002Z" stroke="url(#paint0_linear_1822_10907)" stroke-width="6.33333" stroke-linecap="round" stroke-linejoin="round"/>
<defs>
<linearGradient id="paint0_linear_1822_10907" x1="61" y1="3.3335" x2="61" y2="104.667" gradientUnits="userSpaceOnUse">
<stop offset="0.2" stop-color="#D4D4D8"/>
<stop offset="1" stop-color="#D4D4D8" stop-opacity="0"/>
</linearGradient>
</defs>
</svg>
