<svg width="240" height="188" viewBox="0 0 240 188" fill="none" xmlns="http://www.w3.org/2000/svg">
<path d="M217.2 113.749C245.85 140.474 261.525 163.749 255.85 174.999C246.538 193.249 183.562 171.762 115.163 127.024C46.7875 82.2869 -1.13748 31.2244 8.16252 12.9869C13.9625 1.61187 44.7375 7.43687 80.7 23.0494M44.5 94C44.5 105.491 46.7633 116.869 51.1605 127.485C55.5578 138.101 62.003 147.747 70.1282 155.872C78.2533 163.997 87.8992 170.442 98.5152 174.839C109.131 179.237 120.509 181.5 132 181.5C143.491 181.5 154.869 179.237 165.485 174.839C176.101 170.442 185.747 163.997 193.872 155.872C201.997 147.747 208.442 138.101 212.839 127.485C217.237 116.869 219.5 105.491 219.5 94C219.5 82.5093 217.237 71.1312 212.839 60.5152C208.442 49.8992 201.997 40.2533 193.872 32.1282C185.747 24.003 176.101 17.5578 165.485 13.1605C154.869 8.76325 143.491 6.5 132 6.5C120.509 6.5 109.131 8.76325 98.5152 13.1605C87.8992 17.5578 78.2533 24.003 70.1282 32.1282C62.003 40.2533 55.5578 49.8992 51.1605 60.5152C46.7633 71.1312 44.5 82.5093 44.5 94Z" stroke="url(#paint0_linear_1822_10887)" stroke-width="12.5" stroke-linecap="round" stroke-linejoin="round"/>
<defs>
<linearGradient id="paint0_linear_1822_10887" x1="132.005" y1="6.5" x2="132.005" y2="181.501" gradientUnits="userSpaceOnUse">
<stop offset="0.2" stop-color="#D4D4D8"/>
<stop offset="1" stop-color="#D4D4D8" stop-opacity="0"/>
</linearGradient>
</defs>
</svg>
