<svg width="295" height="184" viewBox="0 0 295 184" fill="none" xmlns="http://www.w3.org/2000/svg">
<path d="M25.6666 158.667L125.667 42.0003L209 125.334L292.333 25.3337M192.333 125.333C192.333 129.753 194.089 133.993 197.215 137.118C200.34 140.244 204.58 142 209 142C213.42 142 217.659 140.244 220.785 137.118C223.911 133.993 225.667 129.753 225.667 125.333C225.667 120.913 223.911 116.674 220.785 113.548C217.659 110.422 213.42 108.667 209 108.667C204.58 108.667 200.34 110.422 197.215 113.548C194.089 116.674 192.333 120.913 192.333 125.333ZM109 42.0003C109 46.4206 110.756 50.6599 113.882 53.7855C117.007 56.9111 121.246 58.667 125.667 58.667C130.087 58.667 134.326 56.9111 137.452 53.7855C140.577 50.6599 142.333 46.4206 142.333 42.0003C142.333 37.5801 140.577 33.3408 137.452 30.2152C134.326 27.0896 130.087 25.3337 125.667 25.3337C121.246 25.3337 117.007 27.0896 113.882 30.2152C110.756 33.3408 109 37.5801 109 42.0003ZM9 158.667C9 163.087 10.7559 167.326 13.8816 170.452C17.0072 173.577 21.2464 175.333 25.6667 175.333C30.0869 175.333 34.3262 173.577 37.4518 170.452C40.5774 167.326 42.3333 163.087 42.3333 158.667C42.3333 154.246 40.5774 150.007 37.4518 146.882C34.3262 143.756 30.0869 142 25.6667 142C21.2464 142 17.0072 143.756 13.8816 146.882C10.7559 150.007 9 154.246 9 158.667ZM275.667 25.3332C275.667 29.7534 277.423 33.9927 280.548 37.1183C283.674 40.2439 287.913 41.9998 292.333 41.9998C296.754 41.9998 300.993 40.2439 304.119 37.1183C307.244 33.9927 309 29.7534 309 25.3332C309 20.9129 307.244 16.6737 304.119 13.5481C300.993 10.4225 296.754 8.6665 292.333 8.6665C287.913 8.6665 283.674 10.4225 280.548 13.5481C277.423 16.6737 275.667 20.9129 275.667 25.3332Z" stroke="url(#paint0_linear_1822_10864)" stroke-width="16.6667" stroke-linecap="round" stroke-linejoin="round"/>
<defs>
<linearGradient id="paint0_linear_1822_10864" x1="159" y1="8.6665" x2="159" y2="175.333" gradientUnits="userSpaceOnUse">
<stop offset="0.2" stop-color="#D4D4D8"/>
<stop offset="1" stop-color="#D4D4D8" stop-opacity="0"/>
</linearGradient>
</defs>
</svg>
