<svg width="279" height="318" viewBox="0 0 279 318" fill="none" xmlns="http://www.w3.org/2000/svg">
<path d="M159 75.6667C142.518 75.6667 126.407 80.5542 112.702 89.7109C98.9984 98.8677 88.3173 111.883 82.01 127.11C75.7027 142.337 74.0524 159.093 77.2679 175.258C80.4833 191.423 88.4201 206.271 100.074 217.926C111.729 229.58 126.577 237.517 142.742 240.732C158.908 243.948 175.663 242.297 190.89 235.99C206.117 229.683 219.132 219.002 228.289 205.298C237.446 191.593 242.333 175.482 242.333 159M175.666 9.91502C144.768 6.44854 113.555 12.6697 86.3464 27.7179C59.1378 42.7661 37.2778 65.8976 23.7904 93.9127C10.303 121.928 5.85463 153.442 11.0607 184.096C16.2668 214.749 30.8701 243.028 52.8504 265.019C74.8307 287.011 103.102 301.628 133.753 306.85C164.404 312.071 195.92 307.639 223.942 294.165C251.964 280.692 275.107 258.844 290.169 231.643C305.23 204.442 311.467 173.232 308.016 142.332M209 109V59.0001L259 9.00008V59.0001H309L259 109H209ZM209 109L159 159M142.333 159C142.333 163.42 144.089 167.66 147.215 170.785C150.34 173.911 154.58 175.667 159 175.667C163.42 175.667 167.659 173.911 170.785 170.785C173.911 167.66 175.667 163.42 175.667 159C175.667 154.58 173.911 150.341 170.785 147.215C167.659 144.089 163.42 142.333 159 142.333C154.58 142.333 150.34 144.089 147.215 147.215C144.089 150.341 142.333 154.58 142.333 159Z" stroke="url(#paint0_linear_1822_10869)" stroke-width="16.6667" stroke-linecap="round" stroke-linejoin="round"/>
<defs>
<linearGradient id="paint0_linear_1822_10869" x1="158.971" y1="8.97974" x2="158.971" y2="308.98" gradientUnits="userSpaceOnUse">
<stop offset="0.2" stop-color="#D4D4D8"/>
<stop offset="1" stop-color="#D4D4D8" stop-opacity="0"/>
</linearGradient>
</defs>
</svg>
