<svg width="81" height="89" viewBox="0 0 81 89" fill="none" xmlns="http://www.w3.org/2000/svg">
<path d="M22.125 85.8333H70.875M17.25 17.5833L46.5 12.7083L75.75 17.5833M17.25 17.5833L31.875 46.8333C31.875 50.712 30.3342 54.432 27.5914 57.1747C24.8487 59.9174 21.1288 61.4583 17.25 61.4583C13.3712 61.4583 9.65128 59.9174 6.90856 57.1747C4.16584 54.432 2.625 50.712 2.625 46.8333L17.25 17.5833ZM75.75 17.5833L90.375 46.8333C90.375 50.712 88.8342 54.432 86.0914 57.1747C83.3487 59.9174 79.6288 61.4583 75.75 61.4583C71.8712 61.4583 68.1513 59.9174 65.4086 57.1747C62.6658 54.432 61.125 50.712 61.125 46.8333L75.75 17.5833ZM46.5 2.95825V85.8333" stroke="url(#paint0_linear_1822_10875)" stroke-width="4.875" stroke-linecap="round" stroke-linejoin="round"/>
<defs>
<linearGradient id="paint0_linear_1822_10875" x1="46.5" y1="2.95825" x2="46.5" y2="85.8333" gradientUnits="userSpaceOnUse">
<stop offset="0.2" stop-color="#D4D4D8"/>
<stop offset="1" stop-color="#D4D4D8" stop-opacity="0"/>
</linearGradient>
</defs>
</svg>
