<svg width="102" height="122" viewBox="0 0 102 122" fill="none" xmlns="http://www.w3.org/2000/svg">
<path d="M67.0001 4V29.3333C67.0001 31.013 67.6673 32.6239 68.8551 33.8117C70.0428 34.9994 71.6537 35.6667 73.3334 35.6667H98.6667M67.0001 4H41.6667C38.3073 4 35.0855 5.33452 32.7101 7.70998C30.3346 10.0854 29.0001 13.3073 29.0001 16.6667V80C29.0001 83.3594 30.3346 86.5812 32.7101 88.9567C35.0855 91.3321 38.3073 92.6667 41.6667 92.6667H86.0001C89.3595 92.6667 92.5813 91.3321 94.9568 88.9567C97.3322 86.5812 98.6667 83.3594 98.6667 80V35.6667M67.0001 4L98.6667 35.6667M73.3334 92.6667V105.333C73.3334 108.693 71.9989 111.915 69.6234 114.29C67.248 116.665 64.0262 118 60.6667 118H16.3334C12.974 118 9.75219 116.665 7.37673 114.29C5.00127 111.915 3.66675 108.693 3.66675 105.333V42C3.66675 38.6406 5.00127 35.4188 7.37673 33.0433C9.75219 30.6679 12.974 29.3333 16.3334 29.3333H29.0001" stroke="url(#paint0_linear_1822_10903)" stroke-width="6.33333" stroke-linecap="round" stroke-linejoin="round"/>
<defs>
<linearGradient id="paint0_linear_1822_10903" x1="51.1667" y1="4" x2="51.1667" y2="118" gradientUnits="userSpaceOnUse">
<stop offset="0.2" stop-color="#D4D4D8"/>
<stop offset="1" stop-color="#D4D4D8" stop-opacity="0"/>
</linearGradient>
</defs>
</svg>
