<svg width="238" height="238" viewBox="0 0 238 238" fill="none" xmlns="http://www.w3.org/2000/svg">
<path d="M69 231.5V219C69 212.37 71.6339 206.011 76.3223 201.322C81.0107 196.634 87.3696 194 94 194H144C150.63 194 156.989 196.634 161.678 201.322C166.366 206.011 169 212.37 169 219V231.5M181.5 94H206.5C213.13 94 219.489 96.6339 224.178 101.322C228.866 106.011 231.5 112.37 231.5 119V131.5M6.5 131.5V119C6.5 112.37 9.13392 106.011 13.8223 101.322C18.5107 96.6339 24.8696 94 31.5 94H56.5M94 131.5C94 138.13 96.6339 144.489 101.322 149.178C106.011 153.866 112.37 156.5 119 156.5C125.63 156.5 131.989 153.866 136.678 149.178C141.366 144.489 144 138.13 144 131.5C144 124.87 141.366 118.511 136.678 113.822C131.989 109.134 125.63 106.5 119 106.5C112.37 106.5 106.011 109.134 101.322 113.822C96.6339 118.511 94 124.87 94 131.5ZM156.5 31.5C156.5 38.1304 159.134 44.4893 163.822 49.1777C168.511 53.8661 174.87 56.5 181.5 56.5C188.13 56.5 194.489 53.8661 199.178 49.1777C203.866 44.4893 206.5 38.1304 206.5 31.5C206.5 24.8696 203.866 18.5107 199.178 13.8223C194.489 9.13392 188.13 6.5 181.5 6.5C174.87 6.5 168.511 9.13392 163.822 13.8223C159.134 18.5107 156.5 24.8696 156.5 31.5ZM31.5 31.5C31.5 38.1304 34.1339 44.4893 38.8223 49.1777C43.5107 53.8661 49.8696 56.5 56.5 56.5C63.1304 56.5 69.4893 53.8661 74.1777 49.1777C78.8661 44.4893 81.5 38.1304 81.5 31.5C81.5 24.8696 78.8661 18.5107 74.1777 13.8223C69.4893 9.13392 63.1304 6.5 56.5 6.5C49.8696 6.5 43.5107 9.13392 38.8223 13.8223C34.1339 18.5107 31.5 24.8696 31.5 31.5Z" stroke="url(#paint0_linear_1822_10892)" stroke-width="12.5" stroke-linecap="round" stroke-linejoin="round"/>
<defs>
<linearGradient id="paint0_linear_1822_10892" x1="119" y1="6.5" x2="119" y2="231.5" gradientUnits="userSpaceOnUse">
<stop offset="0.2" stop-color="#D4D4D8"/>
<stop offset="1" stop-color="#D4D4D8" stop-opacity="0"/>
</linearGradient>
</defs>
</svg>
