<svg width="295" height="284" viewBox="0 0 295 284" fill="none" xmlns="http://www.w3.org/2000/svg">
<path d="M109 258.667V158.667C109 154.246 107.244 150.007 104.118 146.882C100.993 143.756 96.7536 142 92.3333 142H25.6667C21.2464 142 17.0072 143.756 13.8816 146.882C10.7559 150.007 9 154.246 9 158.667V258.667C9 263.087 10.7559 267.326 13.8816 270.452C17.0072 273.577 21.2464 275.333 25.6667 275.333M109 258.667C109 263.087 107.244 267.326 104.118 270.452C100.993 273.577 96.7536 275.333 92.3333 275.333H25.6667M109 258.667C109 263.087 110.756 267.326 113.882 270.452C117.007 273.578 121.246 275.333 125.667 275.333H192.333C196.754 275.333 200.993 273.578 204.118 270.452C207.244 267.326 209 263.087 209 258.666M109 258.667V25.3334C109 20.9131 110.756 16.6739 113.882 13.5483C117.007 10.4227 121.246 8.66675 125.667 8.66675H192.333C196.754 8.66675 200.993 10.4227 204.118 13.5483C207.244 16.6739 209 20.9131 209 25.3334V258.666M25.6667 275.333L259 275.334M209 258.666C209 263.087 210.756 267.326 213.882 270.452C217.007 273.577 221.246 275.333 225.667 275.333H292.333C296.754 275.333 300.993 273.577 304.118 270.452C307.244 267.326 309 263.087 309 258.666V91.9998C309 87.5795 307.244 83.3403 304.118 80.2147C300.993 77.0891 296.754 75.3332 292.333 75.3332H225.667C221.246 75.3332 217.007 77.0891 213.882 80.2147C210.756 83.3403 209 87.5795 209 91.9998V258.666Z" stroke="url(#paint0_linear_1822_10897)" stroke-width="16.6667" stroke-linecap="round" stroke-linejoin="round"/>
<defs>
<linearGradient id="paint0_linear_1822_10897" x1="159" y1="8.66675" x2="159" y2="275.334" gradientUnits="userSpaceOnUse">
<stop offset="0.2" stop-color="#D4D4D8"/>
<stop offset="1" stop-color="#D4D4D8" stop-opacity="0"/>
</linearGradient>
</defs>
</svg>
