<svg width="167" height="32" viewBox="0 0 167 32" fill="none" xmlns="http://www.w3.org/2000/svg">
<path d="M13.9549 25.7998L6.07288 15.6638L13.1989 6.19978H18.9949L11.7429 15.6498L19.9329 25.7998H13.9549ZM1.90088 25.7998V6.19978H6.54888V13.4658H10.2449V17.7078H6.54888V25.7998H1.90088Z" fill="#0F766E"/>
<path d="M30.2815 26.2198C28.7788 26.2198 27.3882 25.9631 26.1095 25.4498C24.8402 24.9271 23.7342 24.2038 22.7915 23.2798C21.8488 22.3558 21.1162 21.2731 20.5935 20.0318C20.0802 18.7905 19.8235 17.4465 19.8235 15.9998C19.8235 14.5438 20.0802 13.1951 20.5935 11.9538C21.1162 10.7125 21.8488 9.62978 22.7915 8.70579C23.7342 7.78179 24.8402 7.06312 26.1095 6.54978C27.3882 6.03645 28.7788 5.77979 30.2815 5.77979C31.7935 5.77979 33.1842 6.04112 34.4535 6.56379C35.7228 7.08645 36.8288 7.81445 37.7715 8.74779C38.7142 9.68112 39.4422 10.7685 39.9555 12.0098C40.4782 13.2418 40.7395 14.5718 40.7395 15.9998C40.7395 17.4465 40.4782 18.7905 39.9555 20.0318C39.4422 21.2731 38.7142 22.3558 37.7715 23.2798C36.8288 24.2038 35.7228 24.9271 34.4535 25.4498C33.1842 25.9631 31.7935 26.2198 30.2815 26.2198ZM30.2815 21.8518C31.0935 21.8518 31.8355 21.7165 32.5075 21.4458C33.1888 21.1751 33.7815 20.7831 34.2855 20.2698C34.7895 19.7565 35.1768 19.1405 35.4475 18.4218C35.7275 17.6938 35.8675 16.8865 35.8675 15.9998C35.8675 14.8051 35.6248 13.7691 35.1395 12.8918C34.6635 12.0145 34.0008 11.3378 33.1515 10.8618C32.3115 10.3765 31.3548 10.1338 30.2815 10.1338C29.4788 10.1338 28.7368 10.2738 28.0555 10.5538C27.3742 10.8245 26.7815 11.2165 26.2775 11.7298C25.7828 12.2431 25.3955 12.8591 25.1155 13.5778C24.8355 14.2965 24.6955 15.1038 24.6955 15.9998C24.6955 17.1851 24.9382 18.2165 25.4235 19.0938C25.9088 19.9711 26.5715 20.6525 27.4115 21.1378C28.2608 21.6138 29.2175 21.8518 30.2815 21.8518Z" fill="#0F766E"/>
<path d="M44.147 25.7998V6.19978H48.613L56.061 18.5618L54.213 18.5758L61.297 6.19978H65.749V25.7998H61.241L61.325 12.1358L62.151 12.4298L56.495 22.1038H53.401L47.521 12.4298L48.319 12.1358L48.403 25.7998H44.147Z" fill="#0F766E"/>
<path d="M73.8136 25.7998V10.4418H68.5916V6.19978H83.7116V10.4418H78.4896V25.7998H73.8136Z" fill="#0F766E"/>
<path d="M86.5571 25.7998V6.19978H100.333V10.2318H91.2051V13.8718H98.8631V17.5958H91.2051V21.7258H100.445V25.7998H86.5571Z" fill="#0F766E"/>
<path d="M102.413 25.7998L108.475 15.8178L102.665 6.19978H108.265L111.807 12.2898L115.461 6.19978H120.921L114.971 15.9018L121.047 25.7998H115.405L111.611 19.3318L107.901 25.7998H102.413Z" fill="#0F766E"/>
<path d="M123.745 25.7998V6.19978H128.393V13.4658H136.121V6.19978H140.769V25.7998H136.121V17.7078H128.393V25.7998H123.745Z" fill="#0F766E"/>
<path d="M154.641 26.2198C153.138 26.2198 151.748 25.9631 150.469 25.4498C149.2 24.9271 148.094 24.2038 147.151 23.2798C146.208 22.3558 145.476 21.2731 144.953 20.0318C144.44 18.7905 144.183 17.4465 144.183 15.9998C144.183 14.5438 144.44 13.1951 144.953 11.9538C145.476 10.7125 146.208 9.62978 147.151 8.70579C148.094 7.78179 149.2 7.06312 150.469 6.54978C151.748 6.03645 153.138 5.77979 154.641 5.77979C156.153 5.77979 157.544 6.04112 158.813 6.56379C160.082 7.08645 161.188 7.81445 162.131 8.74779C163.074 9.68112 163.802 10.7685 164.315 12.0098C164.838 13.2418 165.099 14.5718 165.099 15.9998C165.099 17.4465 164.838 18.7905 164.315 20.0318C163.802 21.2731 163.074 22.3558 162.131 23.2798C161.188 24.2038 160.082 24.9271 158.813 25.4498C157.544 25.9631 156.153 26.2198 154.641 26.2198ZM154.641 21.8518C155.453 21.8518 156.195 21.7165 156.867 21.4458C157.548 21.1751 158.141 20.7831 158.645 20.2698C159.149 19.7565 159.536 19.1405 159.807 18.4218C160.087 17.6938 160.227 16.8865 160.227 15.9998C160.227 14.8051 159.984 13.7691 159.499 12.8918C159.023 12.0145 158.36 11.3378 157.511 10.8618C156.671 10.3765 155.714 10.1338 154.641 10.1338C153.838 10.1338 153.096 10.2738 152.415 10.5538C151.734 10.8245 151.141 11.2165 150.637 11.7298C150.142 12.2431 149.755 12.8591 149.475 13.5778C149.195 14.2965 149.055 15.1038 149.055 15.9998C149.055 17.1851 149.298 18.2165 149.783 19.0938C150.268 19.9711 150.931 20.6525 151.771 21.1378C152.62 21.6138 153.577 21.8518 154.641 21.8518Z" fill="#0F766E"/>
</svg>
