<svg width="48" height="48" viewBox="0 0 48 48" fill="none" xmlns="http://www.w3.org/2000/svg">
<rect x="2" y="2" width="44" height="44" rx="10" fill="#18181B"/>
<rect x="2" y="2" width="44" height="44" rx="10" stroke="white" stroke-width="4"/>
<path d="M22 23H18C17.7348 23 17.4804 22.8946 17.2929 22.7071C17.1054 22.5196 17 22.2652 17 22V19C17 18.7348 17.1054 18.4804 17.2929 18.2929C17.4804 18.1054 17.7348 18 18 18H21C21.2652 18 21.5196 18.1054 21.7071 18.2929C21.8946 18.4804 22 18.7348 22 19V25C22 27.667 20.667 29.333 18 30M31 23H27C26.7348 23 26.4804 22.8946 26.2929 22.7071C26.1054 22.5196 26 22.2652 26 22V19C26 18.7348 26.1054 18.4804 26.2929 18.2929C26.4804 18.1054 26.7348 18 27 18H30C30.2652 18 30.5196 18.1054 30.7071 18.2929C30.8946 18.4804 31 18.7348 31 19V25C31 27.667 29.667 29.333 27 30" stroke="#FAFAFA" stroke-width="2" stroke-linecap="round" stroke-linejoin="round"/>
</svg>
