<svg width="40" height="40" viewBox="0 0 40 40" fill="none" xmlns="http://www.w3.org/2000/svg">
<rect width="40" height="40" rx="8" fill="#18181B"/>
<path d="M16 29H24M20 25V29M20 25C21.3261 25 22.5979 24.4732 23.5355 23.5355C24.4732 22.5979 25 21.3261 25 20V12H15V20C15 21.3261 15.5268 22.5979 16.4645 23.5355C17.4021 24.4732 18.6739 25 20 25ZM11 17C11 17.5304 11.2107 18.0391 11.5858 18.4142C11.9609 18.7893 12.4696 19 13 19C13.5304 19 14.0391 18.7893 14.4142 18.4142C14.7893 18.0391 15 17.5304 15 17C15 16.4696 14.7893 15.9609 14.4142 15.5858C14.0391 15.2107 13.5304 15 13 15C12.4696 15 11.9609 15.2107 11.5858 15.5858C11.2107 15.9609 11 16.4696 11 17ZM25 17C25 17.5304 25.2107 18.0391 25.5858 18.4142C25.9609 18.7893 26.4696 19 27 19C27.5304 19 28.0391 18.7893 28.4142 18.4142C28.7893 18.0391 29 17.5304 29 17C29 16.4696 28.7893 15.9609 28.4142 15.5858C28.0391 15.2107 27.5304 15 27 15C26.4696 15 25.9609 15.2107 25.5858 15.5858C25.2107 15.9609 25 16.4696 25 17Z" stroke="#FAFAFA" stroke-width="2" stroke-linecap="round" stroke-linejoin="round"/>
</svg>
